# xmcd CD database file
#
# Track frame offsets:
#	150
#	19500
#	57150
#	89400
#	105850
#	130650
#	158737
#	184350
#	208725
#	236825
#	260600
#
# Disc length: 3735 seconds
#
# Revision: 0
# Processed by: cddbd v1.5.2PL0 Copyright (c) Steve Scherf et al.
# Submitted via: CDex 1.51
#
DISCID=8e0e950b
DTITLE=Holger Mantey - Calaufa
DYEAR=1992
DGENRE=Jazz
TTITLE0=Simple Melody
TTITLE1=Take Five
TTITLE2=Verbaskum
TTITLE3=Remembered Gil Evans
TTITLE4=Rezitativ imitare
TTITLE5=Über B. zehn Jahre zurück
TTITLE6=Au Privave
TTITLE7=Gypsy
TTITLE8=Imi-Ut
TTITLE9=Uklei
TTITLE10=Nice Work If You Can Get It
EXTD=YEAR: 1992
EXTT0=
EXTT1=
EXTT2=
EXTT3=
EXTT4=
EXTT5=
EXTT6=
EXTT7=
EXTT8=
EXTT9=
EXTT10=
PLAYORDER=
